<svg xmlns="http://www.w3.org/2000/svg" viewBox="0 0 840 300" font-family="Georgia, serif">
  <rect width="840" height="300" fill="#F5EFE6"/>
  <rect width="840" height="40" fill="#C9A86A"/>
  <text x="420" y="27" text-anchor="middle" font-size="19" font-weight="bold" fill="#3A2E26" letter-spacing="1.5">READING THE GRAIN</text>
  <g>
    <rect x="24"  y="78" width="180" height="150" fill="#FBF7F0" stroke="#3A2E26" stroke-width="1.3"/>
    <rect x="228" y="78" width="180" height="150" fill="#FBF7F0" stroke="#3A2E26" stroke-width="1.3"/>
    <rect x="432" y="78" width="180" height="150" fill="#FBF7F0" stroke="#3A2E26" stroke-width="1.3"/>
    <rect x="636" y="78" width="180" height="150" fill="#FBF7F0" stroke="#3A2E26" stroke-width="1.3"/>
  </g>
  <!-- straight grain -->
  <g stroke="#3A2E26" stroke-width="1.2" fill="none">
    <path d="M48 84 q6 72 0 144"/><path d="M72 84 q-6 72 0 144"/><path d="M96 84 q6 72 0 144"/><path d="M120 84 q-5 72 0 144"/><path d="M144 84 q6 72 0 144"/><path d="M168 84 q-6 72 0 144"/><path d="M180 84 q4 72 0 144"/>
  </g>
  <!-- cathedral / flat-sawn arches -->
  <g stroke="#3A2E26" stroke-width="1.2" fill="none">
    <path d="M236 228 q82 -150 164 0"/><path d="M252 228 q66 -120 132 0"/><path d="M268 228 q50 -92 100 0"/><path d="M284 228 q34 -64 68 0"/><path d="M300 228 q18 -36 36 0"/>
  </g>
  <!-- quartersawn ray fleck: straight grain + perpendicular flecks -->
  <g stroke="#3A2E26" stroke-width="1.1" fill="none">
    <path d="M456 84 v144"/><path d="M480 84 v144"/><path d="M504 84 v144"/><path d="M528 84 v144"/><path d="M552 84 v144"/><path d="M576 84 v144"/><path d="M600 84 v144"/>
  </g>
  <g stroke="#9B4B3B" stroke-width="2.4">
    <line x1="462" y1="108" x2="478" y2="112"/><line x1="520" y1="128" x2="540" y2="124"/><line x1="486" y1="160" x2="506" y2="164"/><line x1="560" y1="150" x2="582" y2="146"/><line x1="500" y1="196" x2="520" y2="192"/><line x1="566" y1="200" x2="588" y2="204"/><line x1="470" y1="184" x2="488" y2="188"/>
  </g>
  <!-- burl: swirls -->
  <g stroke="#3A2E26" stroke-width="1.1" fill="none">
    <ellipse cx="690" cy="120" rx="26" ry="18"/><ellipse cx="690" cy="120" rx="16" ry="10"/>
    <ellipse cx="752" cy="160" rx="30" ry="20"/><ellipse cx="752" cy="160" rx="19" ry="12"/><ellipse cx="752" cy="160" rx="9" ry="6"/>
    <ellipse cx="688" cy="190" rx="22" ry="14"/><ellipse cx="688" cy="190" rx="12" ry="7"/>
    <ellipse cx="730" cy="104" rx="14" ry="9"/>
  </g>
  <g font-size="14" fill="#3A2E26" font-weight="bold" text-anchor="middle">
    <text x="114" y="252">Straight grain</text>
    <text x="318" y="252">Cathedral (flat-sawn)</text>
    <text x="522" y="252">Quartersawn ray fleck</text>
    <text x="726" y="252">Burl</text>
  </g>
  <g font-size="12.5" fill="#3E6B66" text-anchor="middle">
    <text x="114" y="272">quartered boards</text>
    <text x="318" y="272">plain-sawn faces</text>
    <text x="522" y="272">tiger flecks: Golden Oak</text>
    <text x="726" y="272">prized figure, veneer</text>
  </g>
</svg>
